<svg width="30" height="30" viewBox="0 0 30 30" fill="none" xmlns="http://www.w3.org/2000/svg">
<g id="fluent:ios-arrow-24-regular">
<path id="Vector" d="M15.0006 5.371L25.9086 15.9868C25.9965 16.0742 26.1009 16.1433 26.2156 16.1901C26.3304 16.2369 26.4534 16.2604 26.5773 16.2594C26.7013 16.2584 26.8238 16.2328 26.9378 16.1841C27.0518 16.1354 27.155 16.0646 27.2415 15.9758C27.3279 15.8869 27.3959 15.7818 27.4415 15.6666C27.487 15.5513 27.5093 15.4281 27.5069 15.3042C27.5046 15.1802 27.4777 15.058 27.4278 14.9445C27.3779 14.831 27.3059 14.7286 27.2162 14.6431L15.6545 3.39229C15.4795 3.222 15.2449 3.12672 15.0007 3.1267C14.7565 3.12668 14.522 3.22194 14.347 3.3922L2.78368 14.6414C2.69391 14.7269 2.62198 14.8293 2.57206 14.9428C2.52214 15.0563 2.49521 15.1785 2.49285 15.3024C2.49048 15.4264 2.51271 15.5495 2.55826 15.6648C2.60381 15.7801 2.67177 15.8852 2.75821 15.9741C2.84465 16.0629 2.94786 16.1338 3.06185 16.1825C3.17584 16.2312 3.29837 16.2568 3.42232 16.2578C3.54628 16.2588 3.66921 16.2353 3.784 16.1885C3.8988 16.1417 4.00317 16.0726 4.09109 15.9852L15.0006 5.371Z" fill="#E78E04"/>
</g>
</svg>
