<svg width="15" height="16" viewBox="0 0 15 16" fill="none" xmlns="http://www.w3.org/2000/svg">
<g id="radix-icons:dot">
<path id="Vector" fill-rule="evenodd" clip-rule="evenodd" d="M7.5 9.625C7.93098 9.625 8.3443 9.4538 8.64905 9.14905C8.9538 8.8443 9.125 8.43098 9.125 8C9.125 7.56902 8.9538 7.1557 8.64905 6.85095C8.3443 6.54621 7.93098 6.375 7.5 6.375C7.06902 6.375 6.6557 6.54621 6.35095 6.85095C6.04621 7.1557 5.875 7.56902 5.875 8C5.875 8.43098 6.04621 8.8443 6.35095 9.14905C6.6557 9.4538 7.06902 9.625 7.5 9.625ZM7.5 10.625C7.84472 10.625 8.18606 10.5571 8.50454 10.4252C8.82302 10.2933 9.1124 10.0999 9.35616 9.85616C9.59991 9.6124 9.79327 9.32302 9.92518 9.00454C10.0571 8.68606 10.125 8.34472 10.125 8C10.125 7.65528 10.0571 7.31394 9.92518 6.99546C9.79327 6.67698 9.59991 6.3876 9.35616 6.14384C9.1124 5.90009 8.82302 5.70673 8.50454 5.57482C8.18606 5.4429 7.84472 5.375 7.5 5.375C6.80381 5.375 6.13613 5.65156 5.64384 6.14384C5.15156 6.63613 4.875 7.30381 4.875 8C4.875 8.69619 5.15156 9.36387 5.64384 9.85616C6.13613 10.3484 6.80381 10.625 7.5 10.625Z" fill="#F8F3F3"/>
</g>
</svg>
