<svg width="16" height="10" viewBox="0 0 16 10" fill="none" xmlns="http://www.w3.org/2000/svg">
<path id="Vector" d="M8 8.29096L1.02242 0.207616C0.966194 0.141065 0.899435 0.0884504 0.826012 0.0528174C0.752589 0.0171843 0.673959 -0.00076007 0.594673 2.48026e-05C0.515386 0.000808722 0.437018 0.0203047 0.364102 0.0573854C0.291187 0.0944653 0.225172 0.148393 0.169878 0.216047C0.114583 0.283702 0.071108 0.363739 0.0419674 0.45153C0.0128268 0.539319 -0.00140053 0.63312 0.000108769 0.727498C0.00161807 0.821877 0.0188341 0.914963 0.0507604 1.00137C0.0826867 1.08777 0.128689 1.16578 0.186107 1.23088L7.58184 9.79778C7.69379 9.92745 7.84381 10 8 10C8.15619 10 8.30621 9.92745 8.41816 9.79778L15.8139 1.23088C15.8713 1.16578 15.9173 1.08777 15.9492 1.00137C15.9812 0.914963 15.9984 0.821878 15.9999 0.727498C16.0014 0.63312 15.9872 0.539319 15.958 0.45153C15.9289 0.363739 15.8854 0.283702 15.8301 0.216047C15.7748 0.148393 15.7088 0.0944654 15.6359 0.0573856C15.563 0.0203049 15.4846 0.0008089 15.4053 2.49792e-05C15.326 -0.000759896 15.2474 0.0171844 15.174 0.0528175C15.1006 0.0884506 15.0338 0.141065 14.9776 0.207616L8 8.29096Z" fill="#0C0C0C"/>
</svg>
