<svg width="16" height="10" viewBox="0 0 16 10" fill="none" xmlns="http://www.w3.org/2000/svg">
<path id="Vector" d="M8 1.70904L1.02242 9.79238C0.966194 9.85894 0.899435 9.91155 0.826012 9.94718C0.752589 9.98282 0.673959 10.0008 0.594673 9.99998C0.515386 9.99919 0.437018 9.9797 0.364102 9.94261C0.291187 9.90553 0.225172 9.85161 0.169878 9.78395C0.114583 9.7163 0.071108 9.63626 0.0419674 9.54847C0.0128268 9.46068 -0.00140053 9.36688 0.000108769 9.2725C0.00161807 9.17812 0.0188341 9.08504 0.0507604 8.99863C0.0826867 8.91223 0.128689 8.83422 0.186107 8.76912L7.58184 0.202217C7.69379 0.0725499 7.84381 -9.35365e-08 8 -9.5399e-08C8.15619 -9.72616e-08 8.30621 0.0725499 8.41816 0.202217L15.8139 8.76912C15.8713 8.83422 15.9173 8.91223 15.9492 8.99863C15.9812 9.08504 15.9984 9.17812 15.9999 9.2725C16.0014 9.36688 15.9872 9.46068 15.958 9.54847C15.9289 9.63626 15.8854 9.7163 15.8301 9.78395C15.7748 9.85161 15.7088 9.90553 15.6359 9.94261C15.563 9.9797 15.4846 9.99919 15.4053 9.99998C15.326 10.0008 15.2474 9.98282 15.174 9.94718C15.1006 9.91155 15.0338 9.85894 14.9776 9.79238L8 1.70904Z" fill="#0C0C0C"/>
</svg>
